<?xml version="1.0" standalone="no"?>
<!DOCTYPE svg PUBLIC "-//W3C//DTD SVG 20010904//EN"
 "http://www.w3.org/TR/2001/REC-SVG-20010904/DTD/svg10.dtd">
<svg version="1.0" xmlns="http://www.w3.org/2000/svg"
 width="1024.000000pt" height="1024.000000pt" viewBox="0 0 1024.000000 1024.000000"
 preserveAspectRatio="xMidYMid meet">
<metadata>
Created by potrace 1.11, written by Peter Selinger 2001-2013
</metadata>
<g transform="translate(0.000000,1024.000000) scale(0.100000,-0.100000)"
fill="#000000" stroke="none">
<path d="M5010 8407 c-55 -17 -119 -91 -194 -222 -38 -66 -81 -140 -96 -165
-15 -25 -80 -137 -145 -250 -65 -113 -155 -268 -200 -345 -46 -77 -116 -198
-157 -270 -80 -139 -178 -307 -273 -470 -32 -55 -90 -156 -130 -225 -40 -69
-97 -168 -127 -220 -162 -279 -359 -620 -423 -730 -39 -69 -98 -170 -130 -225
-32 -55 -66 -113 -75 -130 -42 -73 -385 -666 -420 -725 -21 -36 -120 -207
-220 -380 -185 -319 -308 -531 -520 -895 -514 -883 -561 -967 -577 -1031 -30
-120 23 -243 126 -296 l53 -28 3613 0 3613 0 53 28 c64 33 112 97 128 172 21
96 15 109 -264 585 -98 167 -361 619 -450 775 -18 30 -191 330 -385 665 -194
336 -360 624 -370 640 -167 290 -370 640 -435 750 -45 77 -135 232 -200 345
-65 113 -171 295 -235 405 -64 110 -153 263 -197 340 -45 77 -129 223 -189
325 -59 102 -215 372 -347 600 -132 228 -255 440 -272 470 -18 30 -66 114
-107 185 -41 72 -85 148 -98 170 -62 107 -153 165 -255 164 -33 -1 -76 -6 -95
-12z m168 -844 c38 -65 87 -149 109 -188 22 -38 73 -126 113 -195 117 -201
150 -259 150 -265 0 -3 -200 -5 -445 -5 l-446 0 27 48 c15 26 90 155 167 287
77 132 165 284 196 337 31 54 57 98 58 98 1 0 33 -53 71 -117z m725 -1255
c176 -301 238 -406 357 -613 73 -126 143 -247 157 -268 13 -22 23 -41 20 -43
-4 -4 -335 -5 -2171 -4 l-498 0 18 28 c10 15 48 79 85 142 36 63 98 169 136
235 111 190 209 360 285 493 l70 122 744 0 743 0 54 -92z m842 -1450 c1 -2 46
-79 100 -173 54 -93 117 -201 140 -240 23 -38 79 -135 125 -215 46 -80 114
-198 153 -263 38 -65 67 -120 65 -123 -3 -2 -1004 -3 -2225 -2 l-2219 3 65
112 c36 62 100 171 141 243 76 133 151 261 300 517 l82 143 647 2 c735 3 2623
0 2626 -4z m926 -1600 c23 -40 75 -129 114 -198 40 -69 105 -181 145 -250 75
-128 197 -339 257 -444 18 -32 32 -60 30 -62 -2 -2 -1403 -3 -3114 -2 l-3111
3 37 65 c21 36 88 153 151 260 176 303 212 365 292 505 42 72 84 145 94 162
l19 33 2522 0 2521 0 43 -72z"/>
</g>
</svg>
